<svg width="64" height="64" viewBox="0 0 64 64" fill="none" xmlns="http://www.w3.org/2000/svg">
  <!-- Meta LLaMA Official Logo -->
  <rect width="64" height="64" rx="12" fill="#1877F2"/>
  <path d="M32 8c-13.255 0-24 10.745-24 24s10.745 24 24 24 24-10.745 24-24S45.255 8 32 8zm0 44c-11.046 0-20-8.954-20-20s8.954-20 20-20 20 8.954 20 20-8.954 20-20 20z" fill="white"/>
  <path d="M32 12c-11.046 0-20 8.954-20 20s8.954 20 20 20 20-8.954 20-20-8.954-20-20-20zm0 36c-8.837 0-16-7.163-16-16s7.163-16 16-16 16 7.163 16 16-7.163 16-16 16z" fill="#1877F2"/>
  <path d="M32 16c-8.837 0-16 7.163-16 16s7.163 16 16 16 16-7.163 16-16-7.163-16-16-16zm0 28c-6.627 0-12-5.373-12-12s5.373-12 12-12 12 5.373 12 12-5.373 12-12 12z" fill="white"/>
  <circle cx="32" cy="32" r="4" fill="#1877F2"/>
</svg>