<svg width="64" height="64" viewBox="0 0 64 64" fill="none" xmlns="http://www.w3.org/2000/svg">
  <!-- Referral Bonus Icon -->
  <rect width="64" height="64" rx="12" fill="#10B981"/>
  <path d="M32 8c-13.255 0-24 10.745-24 24s10.745 24 24 24 24-10.745 24-24S45.255 8 32 8zm0 44c-11.046 0-20-8.954-20-20s8.954-20 20-20 20 8.954 20 20-8.954 20-20 20z" fill="white"/>
  <path d="M32 12c-11.046 0-20 8.954-20 20s8.954 20 20 20 20-8.954 20-20-8.954-20-20-20zm0 36c-8.837 0-16-7.163-16-16s7.163-16 16-16 16 7.163 16 16-7.163 16-16 16z" fill="#10B981"/>
  <path d="M28 24h8v16h-8z" fill="white"/>
  <path d="M30 26h4v12h-4z" fill="#10B981"/>
  <circle cx="32" cy="32" r="2" fill="white"/>
</svg>